# xmcd
#
# Track frame offsets:
#	150
#	7063
#	26436
#	47827
#	68398
#	89544
#	111352
#	139629
#	157023
#	175979
#
# Disc length: 2713 seconds
# Revision: 0
# Processed by: cddbd v1.5.2PL0 Copyright (c) Steve Scherf et al.
# Submitted via: dBpowerAMP V12.0
#
DISCID=800a970a
DTITLE=Nervecell - Preaching Venom
DYEAR=2008
DGENRE=Metal
TTITLE0=As They Reign and Slither
TTITLE1=Vicious Circle of Bloodshed
TTITLE2=Flesh and Memories
TTITLE3=For Every Victim Fallen
TTITLE4=Beyond Our Sins
TTITLE5=Haute Monde Facade
TTITLE6=Ratios
TTITLE7=Demean
TTITLE8=Vastlands of Abomination
TTITLE9=Existence Ceased
EXTD=
EXTT0=
EXTT1=
EXTT2=
EXTT3=
EXTT4=
EXTT5=
EXTT6=
EXTT7=
EXTT8=
EXTT9=
PLAYORDER=
